<svg width="409" height="82" viewBox="0 0 409 82" fill="none" xmlns="http://www.w3.org/2000/svg">
<path d="M14.9578 8.87109L22.5652 16.4787L16.5644 22.4797L8.95703 14.872L14.9578 8.87109Z" fill="#F45800"/>
<path d="M64.7586 58.6777L72.366 66.2854L66.3652 72.2863L58.7578 64.6787L64.7586 58.6777Z" fill="#F45800"/>
<path d="M16.5644 58.6777L22.5652 64.6787L14.9578 72.2863L8.95703 66.2854L16.5644 58.6777Z" fill="#F45800"/>
<path d="M0 36.3623H10.752V44.8488H0V36.3623Z" fill="#F45800"/>
<path d="M70.4492 36.3491H81.2012V44.8356H70.4492V36.3491Z" fill="#F45800"/>
<path d="M36.3672 70.4458H44.8534V81.1981H36.3672V70.4458Z" fill="#F45800"/>
<path d="M36.3477 0H44.8339V10.7523H36.3477V0Z" fill="#F45800"/>
<path d="M28.0919 52.2234C35.5894 59.7898 47.797 59.8448 55.3632 52.347C57.78 49.9439 59.524 46.9503 60.4165 43.6546L67.3648 18.2226C68.2025 15.1741 65.4149 12.3727 62.3664 13.1966L36.7978 20.0627C26.5127 22.8091 20.4158 33.3692 23.1622 43.6546C24.0273 46.8953 25.73 49.8615 28.0919 52.2372V52.2234Z" fill="#F45800"/>
<path d="M109.125 34.5627C109.125 20.5558 119.332 10.7246 133.029 10.7246C146.726 10.7246 157.004 20.5558 157.004 34.5627C157.004 48.5695 146.726 58.4007 133.029 58.4007C119.332 58.4007 109.125 48.5695 109.125 34.5627ZM133.029 48.5695C140.556 48.5695 146.286 42.9668 146.286 34.5627C146.286 26.1586 140.556 20.5558 133.029 20.5558C125.502 20.5558 119.825 26.1586 119.825 34.5627C119.825 42.9668 125.484 48.5695 133.029 48.5695Z" fill="black" />
<path d="M161.338 23.2866H170.434L170.505 26.4052C172.849 23.9385 176.622 22.6348 180.447 22.6348C189.737 22.6348 197.617 29.9113 197.617 40.5001C197.617 51.0889 189.755 58.3654 180.447 58.3654C177.062 58.3654 173.748 57.3964 171.404 55.4407C171.527 58.2949 171.598 61.4134 171.598 64.2853V70.7161H161.32V23.269L161.338 23.2866ZM179.09 49.0275C183.832 49.0275 187.34 45.7152 187.34 40.5177C187.34 35.3202 183.832 32.0079 179.09 32.0079C174.348 32.0079 170.963 35.3202 170.963 40.5177C170.963 45.7152 174.401 49.0275 179.09 49.0275Z" fill="black" />
<path d="M201.164 33.5583V24.3261V14.9354L211.442 11.623V23.3042H217.171V32.5364H211.442L211.371 58.7706H201.094L201.164 33.5583Z" fill="black" />
<path d="M226.46 10.7422H226.442C223.609 10.7422 221.312 13.0376 221.312 15.8692V16.1511C221.312 18.9827 223.609 21.2781 226.442 21.2781H226.46C229.293 21.2781 231.59 18.9827 231.59 16.1511V15.8692C231.59 13.0376 229.293 10.7422 226.46 10.7422Z" fill="black" />
<path d="M231.59 23.3047H221.312V58.771H231.59V23.3047Z" fill="black" />
<path d="M252.215 23.4805C256.834 23.4805 260.412 25.1719 262.493 27.8323C264.502 25.1719 268.081 23.4805 272.699 23.4805C281.284 23.4805 286.608 29.0127 286.608 38.6149V58.7707H276.331V38.2273C276.331 34.915 274.568 33.0298 271.977 33.0298C269.385 33.0298 267.622 34.915 267.622 38.2273V58.7707H257.345V38.2273C257.345 34.915 255.653 33.0298 252.991 33.0298C250.329 33.0298 248.637 34.915 248.637 38.2273V58.7707H238.359V38.6149C238.359 28.9951 243.683 23.4805 252.215 23.4805Z" fill="black" />
<path d="M291.875 41.54C291.875 30.9512 299.737 23.6747 309.045 23.6747C312.888 23.6747 316.66 24.9785 318.987 27.4451L319.058 23.3047H328.154V58.7711H319.058L318.987 55.6526C316.643 58.1192 312.87 59.423 309.045 59.423C299.755 59.423 291.875 52.1464 291.875 41.5576V41.54ZM310.402 50.0498C315.092 50.0498 318.529 46.7375 318.529 41.54C318.529 36.3425 315.092 33.0302 310.402 33.0302C305.713 33.0302 302.152 36.3425 302.152 41.54C302.152 46.7375 305.66 50.0498 310.402 50.0498Z" fill="black" />
<path d="M347.357 23.3047H351.782V32.5369H348.344C346.264 32.5369 345.348 33.453 345.348 35.532V58.771H335.07V35.7963C335.07 27.1455 339.689 23.3223 347.357 23.3223V23.3047Z" fill="black" />
<path d="M361.933 10.7422H361.915C359.082 10.7422 356.785 13.0376 356.785 15.8692V16.1511C356.785 18.9827 359.082 21.2781 361.915 21.2781H361.933C364.766 21.2781 367.062 18.9827 367.062 16.1511V15.8692C367.062 13.0376 364.766 10.7422 361.933 10.7422Z" fill="black" />
<path d="M367.062 23.3047H356.785V58.771H367.062V23.3047Z" fill="black" />
<path d="M372.723 41.54C372.723 30.9512 380.585 23.6747 389.893 23.6747C393.736 23.6747 397.508 24.9785 399.835 27.4451L399.906 23.3047H409.002V58.7711H399.906L399.835 55.6526C397.49 58.1192 393.718 59.423 389.893 59.423C380.603 59.423 372.723 52.1464 372.723 41.5576V41.54ZM391.25 50.0498C395.939 50.0498 399.377 46.7375 399.377 41.54C399.377 36.3425 395.939 33.0302 391.25 33.0302C386.561 33.0302 383 36.3425 383 41.54C383 46.7375 386.508 50.0498 391.25 50.0498Z" fill="black" />
<path d="M133.031 10.7422C146.728 10.7422 157.006 20.5734 157.006 34.5802L133.031 10.7422Z" fill="black" />
</svg>
