<svg width="22" height="20" viewBox="0 0 22 20" fill="none" xmlns="http://www.w3.org/2000/svg">
<path d="M2.3 19.1C1.8 19.1 1.375 18.925 1.025 18.575C0.675 18.225 0.5 17.8 0.5 17.3V7.2H2V17.3C2 17.3667 2.03333 17.4333 2.1 17.5C2.16667 17.5667 2.23333 17.6 2.3 17.6H18.25V19.1H2.3ZM5.8 15.6C5.3 15.6 4.875 15.425 4.525 15.075C4.175 14.725 4 14.3 4 13.8V3.6H9.15V1.8C9.15 1.3 9.325 0.875 9.675 0.525C10.025 0.175 10.45 0 10.95 0H14.55C15.05 0 15.475 0.175 15.825 0.525C16.175 0.875 16.35 1.3 16.35 1.8V3.6H21.5V13.8C21.5 14.3 21.325 14.725 20.975 15.075C20.625 15.425 20.2 15.6 19.7 15.6H5.8ZM5.8 14.1H19.7C19.7667 14.1 19.8333 14.0667 19.9 14C19.9667 13.9333 20 13.8667 20 13.8V5.1H5.5V13.8C5.5 13.8667 5.53333 13.9333 5.6 14C5.66667 14.0667 5.73333 14.1 5.8 14.1ZM10.65 3.6H14.85V1.8C14.85 1.73333 14.8167 1.66667 14.75 1.6C14.6833 1.53333 14.6167 1.5 14.55 1.5H10.95C10.8833 1.5 10.8167 1.53333 10.75 1.6C10.6833 1.66667 10.65 1.73333 10.65 1.8V3.6Z" />
</svg>
