<svg width="16" height="16" viewBox="0 0 16 16" fill="none" xmlns="http://www.w3.org/2000/svg">
<mask id="mask0_92_1115" style="mask-type:alpha" maskUnits="userSpaceOnUse" x="0" y="0" width="16" height="16">
<rect width="16" height="16" fill="#D9D9D9"/>
</mask>
<g mask="url(#mask0_92_1115)">
<path d="M7.0513 10.8337L11.5346 6.35033L10.8346 5.65033L7.0513 9.43366L5.1513 7.53366L4.4513 8.23366L7.0513 10.8337ZM8.0013 14.3337C7.12352 14.3337 6.29864 14.167 5.52664 13.8337C4.75419 13.5003 4.08464 13.0503 3.51797 12.4837C2.9513 11.917 2.5013 11.2474 2.16797 10.475C1.83464 9.70299 1.66797 8.8781 1.66797 8.00033C1.66797 7.12255 1.83464 6.29744 2.16797 5.52499C2.5013 4.75299 2.9513 4.08366 3.51797 3.51699C4.08464 2.95033 4.75419 2.50033 5.52664 2.16699C6.29864 1.83366 7.12352 1.66699 8.0013 1.66699C8.87908 1.66699 9.70419 1.83366 10.4766 2.16699C11.2486 2.50033 11.918 2.95033 12.4846 3.51699C13.0513 4.08366 13.5013 4.75299 13.8346 5.52499C14.168 6.29744 14.3346 7.12255 14.3346 8.00033C14.3346 8.8781 14.168 9.70299 13.8346 10.475C13.5013 11.2474 13.0513 11.917 12.4846 12.4837C11.918 13.0503 11.2486 13.5003 10.4766 13.8337C9.70419 14.167 8.87908 14.3337 8.0013 14.3337ZM8.0013 13.3337C9.49019 13.3337 10.7513 12.817 11.7846 11.7837C12.818 10.7503 13.3346 9.48921 13.3346 8.00033C13.3346 6.51144 12.818 5.25033 11.7846 4.21699C10.7513 3.18366 9.49019 2.66699 8.0013 2.66699C6.51241 2.66699 5.2513 3.18366 4.21797 4.21699C3.18464 5.25033 2.66797 6.51144 2.66797 8.00033C2.66797 9.48921 3.18464 10.7503 4.21797 11.7837C5.2513 12.817 6.51241 13.3337 8.0013 13.3337Z" fill="#01B09B"/>
</g>
</svg>
