<svg width="18" height="18" viewBox="0 0 18 18" fill="none" xmlns="http://www.w3.org/2000/svg">
<path fill-rule="evenodd" clip-rule="evenodd" d="M18 9C18 13.9706 13.9706 18 9 18C4.02944 18 0 13.9706 0 9C0 4.02944 4.02944 0 9 0C13.9706 0 18 4.02944 18 9ZM14.0156 14.5763C12.6869 15.7722 10.9284 16.5 9 16.5C4.85786 16.5 1.5 13.1421 1.5 9C1.5 7.07158 2.22781 5.31314 3.42374 3.9844L14.0156 14.5763ZM15.0262 13.4656L4.53441 2.97375C5.78196 2.04777 7.32701 1.5 9 1.5C13.1421 1.5 16.5 4.85786 16.5 9C16.5 10.673 15.9522 12.218 15.0262 13.4656Z" fill="#3F3F3F"/>
</svg>
