<svg width="20" height="18" viewBox="0 0 20 18" fill="none" xmlns="http://www.w3.org/2000/svg">
<path d="M13.5 15.5C10.99 15.5 8.82 14.08 7.74 12H13.5L14.5 10H7.08C7.03 9.67 7 9.34 7 9C7 8.66 7.03 8.33 7.08 8H13.5L14.5 6H7.74C8.82 3.92 11 2.5 13.5 2.5C15.11 2.5 16.59 3.09 17.73 4.07L19.5 2.3C17.91 0.87 15.8 0 13.5 0C9.58 0 6.26 2.51 5.02 6H1.5L0.5 8H4.56C4.52 8.33 4.5 8.66 4.5 9C4.5 9.34 4.52 9.67 4.56 10H1.5L0.5 12H5.02C6.26 15.49 9.58 18 13.5 18C15.81 18 17.91 17.13 19.5 15.7L17.72 13.93C16.59 14.91 15.12 15.5 13.5 15.5Z" />
</svg>
