<svg width="22" height="15" viewBox="0 0 22 15" fill="none" xmlns="http://www.w3.org/2000/svg">
<path d="M11 11.575C12.1333 11.575 13.0957 11.179 13.887 10.387C14.679 9.59567 15.075 8.63333 15.075 7.5C15.075 6.36667 14.679 5.40433 13.887 4.613C13.0957 3.821 12.1333 3.425 11 3.425C9.86665 3.425 8.90432 3.821 8.11299 4.613C7.32099 5.40433 6.92499 6.36667 6.92499 7.5C6.92499 8.63333 7.32099 9.59567 8.11299 10.387C8.90432 11.179 9.86665 11.575 11 11.575ZM11 10.2C10.25 10.2 9.61265 9.93733 9.08799 9.412C8.56265 8.88733 8.29999 8.25 8.29999 7.5C8.29999 6.75 8.56265 6.11233 9.08799 5.587C9.61265 5.06233 10.25 4.8 11 4.8C11.75 4.8 12.3877 5.06233 12.913 5.587C13.4377 6.11233 13.7 6.75 13.7 7.5C13.7 8.25 13.4377 8.88733 12.913 9.412C12.3877 9.93733 11.75 10.2 11 10.2ZM11 14.5C8.69999 14.5 6.60432 13.8667 4.71299 12.6C2.82099 11.3333 1.43332 9.63333 0.549988 7.5C1.43332 5.36667 2.82099 3.66667 4.71299 2.4C6.60432 1.13333 8.69999 0.5 11 0.5C13.3 0.5 15.396 1.13333 17.288 2.4C19.1793 3.66667 20.5667 5.36667 21.45 7.5C20.5667 9.63333 19.1793 11.3333 17.288 12.6C15.396 13.8667 13.3 14.5 11 14.5ZM11 13C12.8833 13 14.6127 12.504 16.188 11.512C17.7627 10.5207 18.9667 9.18333 19.8 7.5C18.9667 5.81667 17.7627 4.479 16.188 3.487C14.6127 2.49567 12.8833 2 11 2C9.11665 2 7.38732 2.49567 5.81199 3.487C4.23732 4.479 3.03332 5.81667 2.19999 7.5C3.03332 9.18333 4.23732 10.5207 5.81199 11.512C7.38732 12.504 9.11665 13 11 13Z" fill="#3F3F3F"/>
</svg>
