<svg width="22" height="19" viewBox="0 0 22 19" fill="none" xmlns="http://www.w3.org/2000/svg">
<path d="M14.775 9.975L13.65 8.85C13.8 8.01667 13.5627 7.271 12.938 6.613C12.3127 5.95433 11.55 5.7 10.65 5.85L9.52505 4.725C9.75838 4.625 9.99172 4.55 10.225 4.5C10.4584 4.45 10.7167 4.425 11 4.425C12.1334 4.425 13.0957 4.821 13.887 5.613C14.679 6.40433 15.075 7.36667 15.075 8.5C15.075 8.78333 15.05 9.04567 15 9.287C14.95 9.529 14.875 9.75833 14.775 9.975ZM17.9501 13.075L16.85 12.05C17.4834 11.5667 18.046 11.0373 18.538 10.462C19.0294 9.88733 19.45 9.23333 19.8 8.5C18.9667 6.81667 17.7707 5.479 16.212 4.487C14.654 3.49567 12.9167 3 11 3C10.5167 3 10.0417 3.03333 9.57505 3.1C9.10838 3.16667 8.65005 3.26667 8.20005 3.4L7.02505 2.225C7.65838 1.975 8.30438 1.79167 8.96305 1.675C9.62105 1.55833 10.3 1.5 11 1.5C13.35 1.5 15.4667 2.146 17.35 3.438C19.2334 4.72933 20.6 6.41667 21.4501 8.5C21.0834 9.4 20.6084 10.2373 20.025 11.012C19.4417 11.7873 18.75 12.475 17.9501 13.075ZM18.75 18.875L14.725 14.85C14.2084 15.05 13.6377 15.2083 13.013 15.325C12.3877 15.4417 11.7167 15.5 11 15.5C8.65005 15.5 6.53738 14.854 4.66205 13.562C2.78738 12.2707 1.41672 10.5833 0.550049 8.5C0.916716 7.61667 1.39172 6.79167 1.97505 6.025C2.55838 5.25833 3.20005 4.6 3.90005 4.05L1.12505 1.25L2.17505 0.175L19.8251 17.825L18.75 18.875ZM4.95005 5.1C4.41672 5.51667 3.90438 6.021 3.41305 6.613C2.92105 7.20433 2.51672 7.83333 2.20005 8.5C3.03338 10.1833 4.22905 11.5207 5.78705 12.512C7.34572 13.504 9.08338 14 11 14C11.45 14 11.9 13.9623 12.35 13.887C12.8 13.8123 13.1834 13.7333 13.5 13.65L12.25 12.35C12.0667 12.4167 11.8667 12.4707 11.65 12.512C11.4334 12.554 11.2167 12.575 11 12.575C9.86672 12.575 8.90438 12.179 8.11305 11.387C7.32105 10.5957 6.92505 9.63333 6.92505 8.5C6.92505 8.3 6.94605 8.08733 6.98805 7.862C7.02938 7.63733 7.08338 7.43333 7.15005 7.25L4.95005 5.1Z" fill="#3F3F3F"/>
</svg>
