<svg width="12" height="12" viewBox="0 0 12 12" fill="none" xmlns="http://www.w3.org/2000/svg">
<rect width="12" height="12" rx="6" fill="#3F3F3F"/>
<path d="M5.07001 2.92669C5.07001 2.6608 5.15603 2.44184 5.32807 2.26979C5.50793 2.08993 5.73081 2 5.99669 2C6.25476 2 6.47372 2.08993 6.65359 2.26979C6.83345 2.44184 6.92338 2.6608 6.92338 2.92669C6.92338 3.18475 6.83345 3.40371 6.65359 3.58358C6.47372 3.76344 6.25476 3.85337 5.99669 3.85337C5.73081 3.85337 5.50793 3.76344 5.32807 3.58358C5.15603 3.40371 5.07001 3.18475 5.07001 2.92669ZM5.3398 10V4.72141H6.68878V10H5.3398Z" fill="white" />
</svg>
