<svg width="18" height="18" viewBox="0 0 18 18" fill="none" xmlns="http://www.w3.org/2000/svg">
<path d="M9 17.0499C8.01667 17.0499 7.17933 16.7043 6.488 16.013C5.796 15.321 5.45 14.4833 5.45 13.5H2C1.58333 13.5 1.22933 13.354 0.938 13.062C0.646 12.7706 0.5 12.4166 0.5 12C0.5 9.78329 1.246 7.86262 2.738 6.23795C4.22933 4.61262 6.06667 3.70828 8.25 3.52495V0.699951H9.75V3.52495C11.9333 3.70828 13.771 4.61262 15.263 6.23795C16.7543 7.86262 17.5 9.78329 17.5 12C17.5 12.4166 17.354 12.7706 17.062 13.062C16.7707 13.354 16.4167 13.5 16 13.5H12.55C12.55 14.4833 12.2043 15.321 11.513 16.013C10.821 16.7043 9.98333 17.0499 9 17.0499ZM2 12H16C16 10.0666 15.3167 8.41662 13.95 7.04995C12.5833 5.68328 10.9333 4.99995 9 4.99995C7.06667 4.99995 5.41667 5.68328 4.05 7.04995C2.68333 8.41662 2 10.0666 2 12ZM9 15.55C9.56667 15.55 10.05 15.35 10.45 14.95C10.85 14.55 11.05 14.0666 11.05 13.5H6.95C6.95 14.0666 7.15 14.55 7.55 14.95C7.95 15.35 8.43333 15.55 9 15.55Z" />
</svg>
