<svg width="130" height="26" viewBox="0 0 130 26" fill="none" xmlns="http://www.w3.org/2000/svg">
<path d="M4.75378 2.81982L7.17179 5.2379L5.26444 7.14529L2.84644 4.72722L4.75378 2.81982Z" fill="#F45800"/>
<path d="M20.5841 18.6504L23.0021 21.0685L21.0948 22.9759L18.6768 20.5578L20.5841 18.6504Z" fill="#F45800"/>
<path d="M5.26444 18.6504L7.17179 20.5578L4.75378 22.9759L2.84644 21.0685L5.26444 18.6504Z" fill="#F45800"/>
<path d="M0 11.5576H3.41751V14.255H0V11.5576Z" fill="#F45800"/>
<path d="M22.3916 11.5532H25.8091V14.2506H22.3916V11.5532Z" fill="#F45800"/>
<path d="M11.5588 22.3911H14.2562V25.8087H11.5588V22.3911Z" fill="#F45800"/>
<path d="M11.5532 0H14.2506V3.4176H11.5532V0Z" fill="#F45800"/>
<path d="M8.92848 16.5989C11.3116 19.0039 15.1917 19.0214 17.5966 16.6382C18.3648 15.8744 18.9191 14.9229 19.2028 13.8753L21.4113 5.7918C21.6776 4.82283 20.7915 3.93242 19.8226 4.1943L11.6957 6.37668C8.42654 7.24963 6.48865 10.6061 7.36158 13.8753C7.63655 14.9054 8.17776 15.8482 8.92848 16.6033V16.5989Z" fill="#F45800"/>
<path d="M34.6853 10.9856C34.6853 6.53353 37.9295 3.40869 42.2832 3.40869C46.6368 3.40869 49.9034 6.53353 49.9034 10.9856C49.9034 15.4376 46.6368 18.5625 42.2832 18.5625C37.9295 18.5625 34.6853 15.4376 34.6853 10.9856ZM42.2832 15.4376C44.6757 15.4376 46.4967 13.6568 46.4967 10.9856C46.4967 8.31435 44.6757 6.53353 42.2832 6.53353C39.8906 6.53353 38.0864 8.31435 38.0864 10.9856C38.0864 13.6568 39.885 15.4376 42.2832 15.4376Z" fill="#FFFFFF" />
<path d="M51.2815 7.40154H54.1727L54.1951 8.39275C54.9403 7.60874 56.1394 7.19434 57.3553 7.19434C60.3081 7.19434 62.8127 9.50716 62.8127 12.8728C62.8127 16.2385 60.3137 18.5513 57.3553 18.5513C56.2795 18.5513 55.2261 18.2433 54.4809 17.6217C54.5201 18.5289 54.5425 19.5201 54.5425 20.4329V22.4769H51.2759V7.39593L51.2815 7.40154ZM56.9238 15.5832C58.4311 15.5832 59.5461 14.5304 59.5461 12.8784C59.5461 11.2264 58.4311 10.1736 56.9238 10.1736C55.4166 10.1736 54.3408 11.2264 54.3408 12.8784C54.3408 14.5304 55.4334 15.5832 56.9238 15.5832Z" fill="#FFFFFF" />
<path d="M63.9396 10.6664V7.73199V4.74715L67.2063 3.69434V7.40718H69.0273V10.3416H67.2063L67.1839 18.6801H63.9172L63.9396 10.6664Z" fill="#FFFFFF" />
<path d="M71.9801 3.41406H71.9745C71.074 3.41406 70.344 4.14367 70.344 5.04368V5.13328C70.344 6.0333 71.074 6.7629 71.9745 6.7629H71.9801C72.8806 6.7629 73.6106 6.0333 73.6106 5.13328V5.04368C73.6106 4.14367 72.8806 3.41406 71.9801 3.41406Z" fill="#FFFFFF" />
<path d="M73.6106 7.40723H70.344V18.6802H73.6106V7.40723Z" fill="#FFFFFF" />
<path d="M80.1668 7.46289C81.6348 7.46289 82.7722 8.0005 83.4334 8.84611C84.0722 8.0005 85.2096 7.46289 86.6776 7.46289C89.4063 7.46289 91.0985 9.22132 91.0985 12.2734V18.6798H87.8319V12.1502C87.8319 11.0973 87.2715 10.4981 86.4479 10.4981C85.6242 10.4981 85.0639 11.0973 85.0639 12.1502V18.6798H81.7973V12.1502C81.7973 11.0973 81.2594 10.4981 80.4133 10.4981C79.5672 10.4981 79.0293 11.0973 79.0293 12.1502V18.6798H75.7627V12.2734C75.7627 9.21572 77.4548 7.46289 80.1668 7.46289Z" fill="#FFFFFF" />
<path d="M92.7725 13.2033C92.7725 9.83766 95.2715 7.52483 98.2299 7.52483C99.4514 7.52483 100.65 7.93923 101.39 8.72324L101.413 7.40723H104.304V18.6802H101.413L101.39 17.689C100.645 18.473 99.4458 18.8874 98.2299 18.8874C95.2771 18.8874 92.7725 16.5745 92.7725 13.2089V13.2033ZM98.6614 15.9081C100.152 15.9081 101.244 14.8553 101.244 13.2033C101.244 11.5513 100.152 10.4985 98.6614 10.4985C97.1709 10.4985 96.0391 11.5513 96.0391 13.2033C96.0391 14.8553 97.1541 15.9081 98.6614 15.9081Z" fill="#FFFFFF" />
<path d="M110.407 7.40723H111.814V10.3417H110.721C110.06 10.3417 109.769 10.6329 109.769 11.2937V18.6802H106.502V11.3777C106.502 8.62804 107.97 7.41283 110.407 7.41283V7.40723Z" fill="#FFFFFF" />
<path d="M115.04 3.41406H115.034C114.134 3.41406 113.404 4.14367 113.404 5.04368V5.13328C113.404 6.0333 114.134 6.7629 115.034 6.7629H115.04C115.94 6.7629 116.67 6.0333 116.67 5.13328V5.04368C116.67 4.14367 115.94 3.41406 115.04 3.41406Z" fill="#FFFFFF" />
<path d="M116.67 7.40723H113.404V18.6802H116.67V7.40723Z" fill="#FFFFFF" />
<path d="M118.469 13.2033C118.469 9.83766 120.968 7.52483 123.926 7.52483C125.148 7.52483 126.347 7.93923 127.086 8.72324L127.109 7.40723H130V18.6802H127.109L127.086 17.689C126.341 18.473 125.142 18.8874 123.926 18.8874C120.973 18.8874 118.469 16.5745 118.469 13.2089V13.2033ZM124.358 15.9081C125.848 15.9081 126.941 14.8553 126.941 13.2033C126.941 11.5513 125.848 10.4985 124.358 10.4985C122.867 10.4985 121.735 11.5513 121.735 13.2033C121.735 14.8553 122.85 15.9081 124.358 15.9081Z" fill="#FFFFFF" />
<path d="M42.2837 3.41406C46.6373 3.41406 49.904 6.5389 49.904 10.991L42.2837 3.41406Z" fill="#FFFFFF" />
</svg>
