<svg width="16" height="20" viewBox="0 0 16 20" fill="none" xmlns="http://www.w3.org/2000/svg">
<path d="M0.25 16.8748V15.3748H2.25V8.1248C2.25 6.75814 2.671 5.5538 3.513 4.5118C4.35433 3.47047 5.43333 2.7998 6.75 2.4998V1.7998C6.75 1.4498 6.871 1.1538 7.113 0.911805C7.35433 0.670471 7.65 0.549805 8 0.549805C8.35 0.549805 8.64567 0.670471 8.887 0.911805C9.129 1.1538 9.25 1.4498 9.25 1.7998V2.4998C10.5667 2.7998 11.646 3.47047 12.488 4.5118C13.3293 5.5538 13.75 6.75814 13.75 8.1248V15.3748H15.75V16.8748H0.25ZM8 19.7998C7.5 19.7998 7.075 19.6248 6.725 19.2748C6.375 18.9248 6.2 18.4998 6.2 17.9998H9.8C9.8 18.4998 9.625 18.9248 9.275 19.2748C8.925 19.6248 8.5 19.7998 8 19.7998ZM3.75 15.3748H12.25V8.1248C12.25 6.94147 11.8373 5.93714 11.012 5.1118C10.1873 4.28714 9.18333 3.8748 8 3.8748C6.81667 3.8748 5.81267 4.28714 4.988 5.1118C4.16267 5.93714 3.75 6.94147 3.75 8.1248V15.3748Z" fill="#3F3F3F"/>
</svg>
