<svg width="20" height="20" viewBox="0 0 20 20" fill="none" xmlns="http://www.w3.org/2000/svg">
<path d="M9.3 16.8H10.65V15.6C11.4333 15.5 12.1377 15.2083 12.763 14.725C13.3877 14.2417 13.7 13.5167 13.7 12.55C13.7 11.85 13.496 11.2293 13.088 10.688C12.6793 10.146 11.875 9.65833 10.675 9.225C9.625 8.875 8.925 8.56667 8.575 8.3C8.225 8.03333 8.05 7.66667 8.05 7.2C8.05 6.73333 8.22933 6.35 8.588 6.05C8.946 5.75 9.43333 5.6 10.05 5.6C10.5667 5.6 10.9873 5.725 11.312 5.975C11.6373 6.225 11.8833 6.53333 12.05 6.9L13.275 6.4C13.075 5.86667 12.7377 5.41233 12.263 5.037C11.7877 4.66233 11.2667 4.45 10.7 4.4V3.2H9.35V4.4C8.5 4.56667 7.846 4.91233 7.388 5.437C6.92933 5.96233 6.7 6.55 6.7 7.2C6.7 7.95 6.925 8.554 7.375 9.012C7.825 9.47067 8.56667 9.88333 9.6 10.25C10.6667 10.65 11.3917 11.004 11.775 11.312C12.1583 11.6207 12.35 12.0333 12.35 12.55C12.35 13.1833 12.125 13.6417 11.675 13.925C11.225 14.2083 10.7167 14.35 10.15 14.35C9.58333 14.35 9.07933 14.1793 8.638 13.838C8.196 13.496 7.85833 13 7.625 12.35L6.35 12.875C6.61667 13.6083 6.99167 14.1957 7.475 14.637C7.95833 15.079 8.56667 15.3833 9.3 15.55V16.8ZM10 19.5C8.68333 19.5 7.45 19.25 6.3 18.75C5.15 18.25 4.14567 17.5707 3.287 16.712C2.429 15.854 1.75 14.85 1.25 13.7C0.75 12.55 0.5 11.3167 0.5 10C0.5 8.68333 0.75 7.45 1.25 6.3C1.75 5.15 2.429 4.14567 3.287 3.287C4.14567 2.429 5.15 1.75 6.3 1.25C7.45 0.75 8.68333 0.5 10 0.5C11.3167 0.5 12.55 0.75 13.7 1.25C14.85 1.75 15.854 2.429 16.712 3.287C17.5707 4.14567 18.25 5.15 18.75 6.3C19.25 7.45 19.5 8.68333 19.5 10C19.5 11.3167 19.25 12.55 18.75 13.7C18.25 14.85 17.5707 15.854 16.712 16.712C15.854 17.5707 14.85 18.25 13.7 18.75C12.55 19.25 11.3167 19.5 10 19.5ZM10 18C12.2333 18 14.125 17.225 15.675 15.675C17.225 14.125 18 12.2333 18 10C18 7.76667 17.225 5.875 15.675 4.325C14.125 2.775 12.2333 2 10 2C7.76667 2 5.875 2.775 4.325 4.325C2.775 5.875 2 7.76667 2 10C2 12.2333 2.775 14.125 4.325 15.675C5.875 17.225 7.76667 18 10 18Z" />
</svg>
