<svg width="22" height="16" viewBox="0 0 22 16" fill="none" xmlns="http://www.w3.org/2000/svg">
<path d="M12.7501 8.7C12.0501 8.7 11.4584 8.45833 10.9751 7.975C10.4918 7.49167 10.2501 6.9 10.2501 6.2C10.2501 5.51667 10.4918 4.92933 10.9751 4.438C11.4584 3.946 12.0501 3.7 12.7501 3.7C13.4501 3.7 14.0418 3.946 14.5251 4.438C15.0084 4.92933 15.2501 5.51667 15.2501 6.2C15.2501 6.9 15.0084 7.49167 14.5251 7.975C14.0418 8.45833 13.4501 8.7 12.7501 8.7ZM6.1501 11.8C5.6501 11.8 5.2251 11.625 4.8751 11.275C4.5251 10.925 4.3501 10.5 4.3501 10V2.425C4.3501 1.925 4.5251 1.5 4.8751 1.15C5.2251 0.8 5.6501 0.625 6.1501 0.625H19.3501C19.8501 0.625 20.2751 0.8 20.6251 1.15C20.9751 1.5 21.1501 1.925 21.1501 2.425V10C21.1501 10.5 20.9751 10.925 20.6251 11.275C20.2751 11.625 19.8501 11.8 19.3501 11.8H6.1501ZM7.6501 10.3H17.8501C17.8501 9.8 18.0251 9.375 18.3751 9.025C18.7251 8.675 19.1501 8.5 19.6501 8.5V3.925C19.1501 3.925 18.7251 3.74567 18.3751 3.387C18.0251 3.029 17.8501 2.60833 17.8501 2.125H7.6501C7.6501 2.625 7.4751 3.05 7.1251 3.4C6.7751 3.75 6.3501 3.925 5.8501 3.925V8.5C6.3501 8.5 6.7751 8.675 7.1251 9.025C7.4751 9.375 7.6501 9.8 7.6501 10.3ZM18.1751 15.3H2.6501C2.1501 15.3 1.7251 15.125 1.3751 14.775C1.0251 14.425 0.850098 14 0.850098 13.5V3.6H2.3501V13.5C2.3501 13.5833 2.38343 13.654 2.4501 13.712C2.51676 13.7707 2.58343 13.8 2.6501 13.8H18.1751V15.3ZM6.1501 10.3H5.8501V2.125H6.1501C6.06676 2.125 5.9961 2.15433 5.9381 2.213C5.87943 2.271 5.8501 2.34167 5.8501 2.425V10C5.8501 10.0833 5.87943 10.154 5.9381 10.212C5.9961 10.2707 6.06676 10.3 6.1501 10.3Z" />
</svg>
